<svg xmlns="http://www.w3.org/2000/svg" xmlns:xlink="http://www.w3.org/1999/xlink" viewBox="710 0 640 360"><defs><style>.cls-1{clip-path:url(#clip-apns-registration)}.cls-2,.cls-6{fill:none}.cls-2,.cls-3,.cls-6{stroke:#333;stroke-width:2px}.cls-2{stroke-linecap:square}.cls-2,.cls-6,.cls-7{fill-rule:evenodd}.cls-3,.cls-8{fill:#fff}.cls-7{fill:#333}.cls-12,.cls-4,.cls-9{font-size:16px}.cls-10,.cls-11,.cls-12,.cls-4,.cls-5,.cls-9{font-family:-apple-system,BlinkMacSystemFont,&quot;Segoe UI&quot;,Roboto,Helvetica,&quot;PingFang SC&quot;,&quot;Microsoft Yahei&quot;,&quot;WenQuanYi Micro Hei&quot;,Arial,sans-serif,&quot;Apple Color Emoji&quot;,&quot;Segoe UI Emoji&quot;,&quot;Segoe UI Symbol&quot;;fill:#333}#caption,#caption tspan{fill:#999}.cls-6{stroke-dasharray:5.995 2.997}</style><clipPath id="clip-apns-registration"><rect width="640" height="360" x="710"/></clipPath></defs><g id="apns-registration" class="cls-1"><rect width="640" height="360" x="710" class="cls-8"/><g id="apns-registration2" transform="translate(710 1)"><g id="apns-registration-2" data-name="apns-registration"><g id="content" transform="translate(41 76)"><g id="column-1" transform="translate(161)"><path id="Line-1" d="M85,28.5v190" class="cls-2"/><g id="column-1-top"><rect id="Rectangle" width="170" height="33" class="cls-3"/><text id="LeanCloud_iOS_SDK" class="cls-4" data-name="LeanCloud iOS SDK" transform="translate(12.07 22)"><tspan x="0" y="0">LeanCloud iOS SDK</tspan></text></g><g id="column-1-bottom" transform="translate(0 219)"><rect id="Rectangle-2" width="170" height="33" class="cls-3" data-name="Rectangle"/><text id="LeanCloud_iOS_SDK-2" class="cls-4" data-name="LeanCloud iOS SDK" transform="translate(12.07 22)"><tspan x="0" y="0">LeanCloud iOS SDK</tspan></text></g></g><g id="column-2" transform="translate(3)"><path id="Line-2" d="M33,28.5v190" class="cls-2"/><g id="column-2-top"><rect id="Rectangle-Copy-2" width="65" height="33" class="cls-3"/><text id="APNs" class="cls-4" transform="translate(12.051 22)"><tspan x="0" y="0">APNs</tspan></text></g><g id="column-2-bottom" transform="translate(0 219)"><rect id="Rectangle-Copy-2-2" width="65" height="33" class="cls-3" data-name="Rectangle-Copy-2" transform="translate(1)"/><text id="APNs-2" class="cls-4" data-name="APNs" transform="translate(12.051 22)"><tspan x="0" y="0">APNs</tspan></text></g></g><g id="column-3" transform="translate(422 -0.5)"><path id="line-3" d="M68,30V220" class="cls-2"/><g id="column-3-top"><rect id="Rectangle-Copy" width="136" height="33" class="cls-3" transform="translate(0 0.5)"/><text id="LeanCloud_云端" class="cls-4" data-name="LeanCloud 云端" transform="translate(11.078 23)"><tspan x="0" y="0">LeanCloud </tspan><tspan y="0" class="cls-5">云端</tspan></text></g><g id="column-3-bottom" transform="translate(0 219)"><rect id="Rectangle-Copy-2-3" width="136" height="33" class="cls-3" data-name="Rectangle-Copy" transform="translate(0 0.5)"/><text id="LeanCloud_云端-2" class="cls-4" data-name="LeanCloud 云端" transform="translate(11.078 23)"><tspan x="0" y="0">LeanCloud </tspan><tspan y="0" class="cls-5">云端</tspan></text></g></g><g id="direction-2" transform="translate(332.013 291.487) rotate(180)"><path id="dotted-line" d="M198.826-5.333H.986" class="cls-6" transform="translate(296 140) rotate(180)"/><path id="arrow-left" d="M201.366-10.486,210-5.5,201.366-.513Z" class="cls-7" transform="translate(296 140) rotate(180)"/></g><g id="direction-1" transform="translate(246.635 102.986) rotate(180)"><path id="Line" d="M.5,5h203" class="cls-2" transform="translate(204.5 10) rotate(180)"/><path id="arrow-right" d="M202,9.986,210.635,5,202,.014Z" class="cls-7"/></g><g id="direction-3" transform="translate(84.538 161)"><path id="Line-2-2" d="M.5,32H238.038" class="cls-2" data-name="Line" transform="translate(160.962)"/><path id="arrow-right-2" d="M396,36.986,404.635,32,396,27.014Z" class="cls-7" data-name="arrow-right"/><rect id="Rectangle-2-2" width="45" height="24" class="cls-8" data-name="Rectangle-2" transform="translate(189 -3)"/></g><text id="_下发_deviceToken" class="cls-9" data-name="➋ 下发 deviceToken" transform="translate(53 128)"><tspan x="0" y="0">➋</tspan><tspan y="0" class="cls-10"> </tspan><tspan y="0" class="cls-5">下发</tspan><tspan y="0" class="cls-10" xml:space="preserve"> deviceToken</tspan></text><text id="_SDK_将_deviceToken_存储在云端__Installation_表中" class="cls-9" data-name="➌ SDK 将 deviceToken 存储在云端 _Installation 表中" transform="translate(263 138)"><tspan x="0" y="17">➌</tspan><tspan y="17" class="cls-11" xml:space="preserve"> SDK </tspan><tspan y="17" class="cls-5">将</tspan><tspan y="17" class="cls-11" xml:space="preserve"> deviceToken </tspan><tspan y="17" class="cls-5">存储</tspan><tspan x="0" y="39" class="cls-5">在云端</tspan><tspan y="39" class="cls-11" xml:space="preserve"> _Installation </tspan><tspan y="39" class="cls-5">表中</tspan></text><text id="_调用官方_API_申请_deviceToken" class="cls-9" data-name="➊ 调用官方 API，申请 deviceToken" transform="translate(53 45)"><tspan x="0" y="17">➊</tspan><tspan y="17" class="cls-10"> </tspan><tspan y="17" class="cls-5">调用官方</tspan><tspan y="17" class="cls-10" xml:space="preserve"> API</tspan><tspan y="17" class="cls-5">，</tspan><tspan x="0" y="39" class="cls-5">申请</tspan><tspan y="39" class="cls-10" xml:space="preserve"> deviceToken</tspan></text></g><text id="caption" class="cls-12" data-name="注册 APNs (Apple Push Notification Service) 服务时序图" transform="translate(121 45)"><tspan x="0" y="0">注册</tspan><tspan y="0" class="cls-10" xml:space="preserve"> APNs (Apple Push Notification Service) </tspan><tspan y="0">服务时序图</tspan></text></g></g></g></svg>