<svg xmlns="http://www.w3.org/2000/svg" xmlns:xlink="http://www.w3.org/1999/xlink" viewBox="1420 0 640 360"><defs><style>.cls-1{clip-path:url(#clip-push-workflow-ios)}.cls-2,.cls-7{fill:none}.cls-2,.cls-3,.cls-7{stroke:#333;stroke-width:2px}.cls-2{stroke-linecap:square}.cls-2,.cls-7,.cls-8{fill-rule:evenodd}.cls-12,.cls-3{fill:#fff}.cls-8{fill:#333}.cls-4,.cls-6{font-size:16px}.cls-10,.cls-11,.cls-4,.cls-5,.cls-6,.cls-9,text,tspan{font-family:-apple-system,BlinkMacSystemFont,&quot;Segoe UI&quot;,Roboto,Helvetica,&quot;PingFang SC&quot;,&quot;Microsoft Yahei&quot;,&quot;WenQuanYi Micro Hei&quot;,Arial,sans-serif,&quot;Apple Color Emoji&quot;,&quot;Segoe UI Emoji&quot;,&quot;Segoe UI Symbol&quot;;fill:#333}#caption,#caption tspan{fill:#999}.cls-7{stroke-dasharray:5.995 2.997}.cls-9{font-size:14px}</style><clipPath id="clip-push-workflow-ios"><rect width="640" height="360" x="1420"/></clipPath></defs><g id="push-workflow-ios" class="cls-1"><rect width="640" height="360" x="1420" class="cls-12"/><g id="apns-registration2" transform="translate(1420 1)"><g id="apns-registration"><g id="content" transform="translate(41 76)"><g id="column-4" transform="translate(492)"><path id="Line-1" d="M85,28.5v190" class="cls-2" transform="translate(-43 -0.5)"/><g id="column-1-top"><rect id="Rectangle" width="85" height="33" class="cls-3"/><text id="LeanCloud_iOS_SDK" class="cls-4" data-name="LeanCloud iOS SDK" transform="translate(10.5 22.5)"><tspan x="0" y="0">iOS </tspan><tspan y="0" class="cls-5">设备</tspan></text></g><g id="column-1-bottom" transform="translate(0 219)"><rect id="Rectangle-2" width="85" height="33" class="cls-3" data-name="Rectangle"/><text id="LeanCloud_iOS_SDK-2" class="cls-4" data-name="LeanCloud iOS SDK" transform="translate(10.5 22.5)"><tspan x="0" y="0">iOS </tspan><tspan y="0" class="cls-5">设备</tspan></text></g></g><g id="column-3" transform="translate(344)"><path id="Line-2" d="M33,28.5v190" class="cls-2"/><g id="column-2-top"><rect id="Rectangle-Copy-2" width="65" height="33" class="cls-3"/><text id="APNs" class="cls-4" transform="translate(12.051 22)"><tspan x="0" y="0">APNs</tspan></text></g><g id="column-2-bottom" transform="translate(0 219)"><rect id="Rectangle-Copy-2-2" width="65" height="33" class="cls-3" data-name="Rectangle-Copy-2" transform="translate(1)"/><text id="APNs-2" class="cls-4" data-name="APNs" transform="translate(12.051 22)"><tspan x="0" y="0">APNs</tspan></text></g></g><g id="column-1" transform="translate(-21)"><path id="Line-2-2" d="M33,28.5v190" class="cls-2" data-name="Line-2" transform="translate(0.5)"/><g id="column-2-top-2" data-name="column-2-top" transform="translate(0.5)"><rect id="Rectangle-Copy-2-3" width="65" height="33" class="cls-3" data-name="Rectangle-Copy-2" transform="translate(0.5)"/><text id="APNs-3" class="cls-6" data-name="APNs" transform="translate(9 22)"><tspan x="0" y="0">开发者</tspan></text></g><g id="column-2-bottom-2" data-name="column-2-bottom" transform="translate(-0.5 219)"><rect id="Rectangle-Copy-2-4" width="65" height="33" class="cls-3" data-name="Rectangle-Copy-2" transform="translate(1.5)"/><text id="APNs-4" class="cls-6" data-name="APNs" transform="translate(10 22)"><tspan x="0" y="0">开发者</tspan></text></g></g><g id="column-2" transform="translate(127 -0.5)"><path id="line-3" d="M68,30V220" class="cls-2"/><g id="column-3-top"><rect id="Rectangle-Copy" width="136" height="33" class="cls-3" transform="translate(0 0.5)"/><text id="LeanCloud_云端" class="cls-4" data-name="LeanCloud 云端" transform="translate(11.078 23)"><tspan x="0" y="0">LeanCloud </tspan><tspan y="0" class="cls-5">云端</tspan></text></g><g id="column-3-bottom" transform="translate(0 219)"><rect id="Rectangle-Copy-2-5" width="136" height="33" class="cls-3" data-name="Rectangle-Copy" transform="translate(0 0.5)"/><text id="LeanCloud_云端-2" class="cls-4" data-name="LeanCloud 云端" transform="translate(11.078 23)"><tspan x="0" y="0">LeanCloud </tspan><tspan y="0" class="cls-5">云端</tspan></text></g></g><g id="direction-2" transform="translate(490.013 310) rotate(180)"><path id="dotted-line" d="M178.683-5.333H.986" class="cls-7" transform="translate(296 140.167) rotate(180)"/><path id="arrow-left" d="M201.366-10.486,210-5.5,201.366-.513Z" class="cls-8" transform="translate(323 140) rotate(180)"/></g><g id="direction-1" transform="translate(12 89)"><path id="Line" d="M.5,5H177.09" class="cls-2" transform="translate(178.09 10) rotate(180)"/><path id="arrow-right" d="M202,9.986,210.635,5,202,.014Z" class="cls-8" transform="translate(-27)"/></g><g id="direction-3" transform="translate(85 161)"><path id="Line-2-3" d="M.5,32H148.373" class="cls-2" data-name="Line" transform="translate(291.5)"/><path id="arrow-right-2" d="M396,36.986,404.635,32,396,27.014Z" class="cls-8" data-name="arrow-right" transform="translate(44)"/></g><text id="_下发_deviceToken" class="cls-9" data-name="➋ 下发 deviceToken" transform="translate(421 181)"><tspan x="0" y="0">➌</tspan><tspan y="0" class="cls-10"> </tspan><tspan y="0" class="cls-5">发送推送</tspan></text><text id="_找出__Installation_记录中对应的_deviceToken_调用_APNs_API_发送推送" class="cls-9" data-name="➋ 找出 _Installation 记录中对应的 deviceToken，调用 APNs API 发送推送" transform="translate(210 96)"><tspan x="0" y="15">➋</tspan><tspan y="15" class="cls-11"> </tspan><tspan y="15" class="cls-5">找出</tspan><tspan y="15" class="cls-11" xml:space="preserve"> _Installation </tspan><tspan y="15" class="cls-5">记录</tspan><tspan x="0" y="35" class="cls-5">中对应的</tspan><tspan y="35" class="cls-11" xml:space="preserve"> deviceToken</tspan><tspan y="35" class="cls-5">，</tspan><tspan x="0" y="55" class="cls-5">调用</tspan><tspan y="55" class="cls-11" xml:space="preserve"> APNs API </tspan><tspan y="55" class="cls-5">发送推送</tspan></text><text id="_HTTPS_请求推送_API" class="cls-9" data-name="➊ HTTPS 请求推送 API" transform="translate(27 64)"><tspan x="0" y="15">➊</tspan><tspan y="15" class="cls-10" xml:space="preserve"> HTTPS </tspan><tspan y="15" class="cls-5">请求推送</tspan><tspan y="15" class="cls-10" xml:space="preserve"> API</tspan></text></g><text id="caption" class="cls-4" data-name="注册 APNs (Apple Push Notification Service) 服务时序图" transform="translate(264 45)"><tspan x="0" y="0">iOS </tspan><tspan y="0" class="cls-5">推送时序图</tspan></text></g></g></g></svg>